<mxfile host="app.diagrams.net" modified="2021-03-21T12:15:50.555Z" agent="5.0 (Windows NT 10.0; Win64; x64) AppleWebKit/537.36 (KHTML, like Gecko) Chrome/86.0.4240.75 Safari/537.36" etag="ghjUbkoSXleOqQoOdQgV" version="14.4.9" type="github" pages="2">
  <diagram id="JvtX24umQWyxUPTzmFKS" name="Page-1">
    <mxGraphModel dx="1422" dy="772" grid="1" gridSize="10" guides="1" tooltips="1" connect="1" arrows="1" fold="1" page="1" pageScale="1" pageWidth="827" pageHeight="1169" math="0" shadow="0">
      <root>
        <mxCell id="0" />
        <mxCell id="1" parent="0" />
        <mxCell id="8jEXnGCzVAjIg3O6VFAd-2" value="" style="rounded=0;whiteSpace=wrap;html=1;container=1;" vertex="1" parent="1">
          <mxGeometry x="100" y="120" width="240" height="400" as="geometry" />
        </mxCell>
        <mxCell id="8jEXnGCzVAjIg3O6VFAd-3" value="" style="ellipse;whiteSpace=wrap;html=1;aspect=fixed;" vertex="1" parent="1">
          <mxGeometry x="200" y="260" width="80" height="80" as="geometry" />
        </mxCell>
      </root>
    </mxGraphModel>
  </diagram>
  <diagram id="am5IN-Rqpy7yK3jCmP7H" name="Page-2">
    <mxGraphModel dx="1422" dy="772" grid="1" gridSize="10" guides="1" tooltips="1" connect="1" arrows="1" fold="1" page="1" pageScale="1" pageWidth="827" pageHeight="1169" math="0" shadow="0">
      <root>
        <mxCell id="9pNqUJxc5KuHm10-dMn6-0" />
        <mxCell id="9pNqUJxc5KuHm10-dMn6-1" parent="9pNqUJxc5KuHm10-dMn6-0" />
      </root>
    </mxGraphModel>
  </diagram>
</mxfile>
